<svg width="111" height="34" viewBox="0 0 111 34" fill="none" xmlns="http://www.w3.org/2000/svg">
<path d="M53.3173 13.2687H50.6648V7.24719H47.914V13.2687H45.2614V7.24719H44.0825V4.8577H45.2614V4.3798C45.2614 3.32206 45.5431 2.51919 46.1063 1.9712C46.6696 1.41046 47.4686 1.1301 48.5034 1.1301C48.6868 1.1301 48.8571 1.14284 49.0143 1.16833C49.1715 1.18107 49.309 1.20019 49.4269 1.22568C49.5579 1.26391 49.6758 1.29577 49.7806 1.32126V3.61517C49.7151 3.60242 49.6496 3.58968 49.5841 3.57693C49.5186 3.56419 49.4466 3.55145 49.368 3.5387C49.2894 3.52596 49.1977 3.51959 49.0929 3.51959C48.7523 3.51959 48.4707 3.63428 48.248 3.86367C48.0253 4.08032 47.914 4.3798 47.914 4.76212V4.8577H53.3173V13.2687ZM50.5665 2.56379C50.5665 2.18147 50.7106 1.85013 50.9988 1.56976C51.3001 1.27665 51.6472 1.1301 52.0402 1.1301C52.4331 1.1301 52.7737 1.27665 53.0619 1.56976C53.3631 1.85013 53.5138 2.18147 53.5138 2.56379C53.5138 2.94611 53.3631 3.28382 53.0619 3.57693C52.7737 3.8573 52.4331 3.99748 52.0402 3.99748C51.6472 3.99748 51.3001 3.8573 50.9988 3.57693C50.7106 3.28382 50.5665 2.94611 50.5665 2.56379Z" fill="white"/>
<path d="M60.3869 13.3643C59.9939 13.3643 59.6403 13.3197 59.3259 13.2305C59.0115 13.1285 58.743 13.0138 58.5203 12.8864C58.2583 12.7462 58.0291 12.5869 57.8326 12.4085L57.4396 13.2687H55.4748V1.22568H58.1273V5.14444C58.2976 5.00426 58.5007 4.87682 58.7364 4.76212C58.9329 4.66017 59.1687 4.57096 59.4438 4.4945C59.732 4.41803 60.0463 4.3798 60.3869 4.3798C60.9502 4.3798 61.4872 4.4945 61.9981 4.72389C62.509 4.94054 62.9543 5.25276 63.3342 5.66057C63.7272 6.05563 64.035 6.52716 64.2577 7.07515C64.4934 7.62314 64.6113 8.2221 64.6113 8.87204C64.6113 9.52198 64.4934 10.1209 64.2577 10.6689C64.035 11.2169 63.7272 11.6948 63.3342 12.1026C62.9543 12.4977 62.509 12.8099 61.9981 13.0393C61.4872 13.256 60.9502 13.3643 60.3869 13.3643ZM61.9588 8.87204C61.9588 8.24759 61.7689 7.7442 61.389 7.36189C61.0091 6.96682 60.5441 6.76929 59.9939 6.76929C59.4438 6.76929 58.9788 6.96682 58.5989 7.36189C58.219 7.7442 58.0291 8.24759 58.0291 8.87204C58.0291 9.4965 58.219 10.0063 58.5989 10.4013C58.9788 10.7836 59.4438 10.9748 59.9939 10.9748C60.5441 10.9748 61.0091 10.7836 61.389 10.4013C61.7689 10.0063 61.9588 9.4965 61.9588 8.87204Z" fill="white"/>
<path d="M65.7887 8.87204C65.7887 8.2221 65.9066 7.62314 66.1424 7.07515C66.3913 6.51441 66.7253 6.03014 67.1445 5.62234C67.5636 5.20179 68.0483 4.87682 68.5984 4.64743C69.1617 4.40529 69.7643 4.28422 70.4061 4.28422C71.048 4.28422 71.644 4.40529 72.1941 4.64743C72.7574 4.87682 73.2486 5.20179 73.6677 5.62234C74.0869 6.03014 74.4144 6.51441 74.6502 7.07515C74.8991 7.62314 75.0235 8.2221 75.0235 8.87204C75.0235 9.52198 74.8991 10.1273 74.6502 10.6881C74.4144 11.236 74.0869 11.7203 73.6677 12.1409C73.2486 12.5487 72.7574 12.8736 72.1941 13.1158C71.644 13.3452 71.048 13.4599 70.4061 13.4599C69.7643 13.4599 69.1617 13.3452 68.5984 13.1158C68.0483 12.8736 67.5636 12.5487 67.1445 12.1409C66.7253 11.7203 66.3913 11.236 66.1424 10.6881C65.9066 10.1273 65.7887 9.52198 65.7887 8.87204ZM72.371 8.87204C72.371 8.19661 72.181 7.66137 71.8011 7.26631C71.4213 6.87124 70.9563 6.67371 70.4061 6.67371C69.8559 6.67371 69.3909 6.87124 69.0111 7.26631C68.6312 7.66137 68.4413 8.19661 68.4413 8.87204C68.4413 9.54747 68.6312 10.0827 69.0111 10.4778C69.3909 10.8728 69.8559 11.0704 70.4061 11.0704C70.9563 11.0704 71.4213 10.8728 71.8011 10.4778C72.181 10.0827 72.371 9.54747 72.371 8.87204Z" fill="white"/>
<path d="M46.8333 27.2683C46.8857 27.5614 47.0101 27.7972 47.2066 27.9756C47.4031 28.1413 47.6716 28.2241 48.0122 28.2241C48.3528 28.2241 48.6148 28.1476 48.7982 27.9947C48.9946 27.829 49.0929 27.6506 49.0929 27.4595C49.0929 27.3065 48.975 27.1855 48.7392 27.0963C48.5165 26.9943 48.2349 26.8987 47.8943 26.8095C47.5537 26.7076 47.1804 26.5929 46.7744 26.4654C46.3814 26.338 46.0146 26.1723 45.674 25.9684C45.3335 25.7518 45.0453 25.4714 44.8095 25.1273C44.5868 24.7832 44.4755 24.3499 44.4755 23.8274C44.4755 23.4706 44.5541 23.1329 44.7113 22.8143C44.8685 22.483 45.0911 22.1962 45.3793 21.9541C45.6806 21.7119 46.0408 21.5208 46.46 21.3806C46.8923 21.2277 47.3769 21.1512 47.914 21.1512C49.0929 21.1512 49.9902 21.4061 50.6058 21.9158C51.2215 22.4256 51.6013 23.0628 51.7454 23.8274L49.1911 24.0186C49.1387 23.8274 49.0208 23.6554 48.8375 23.5025C48.6541 23.3368 48.4117 23.254 48.1105 23.254C47.8092 23.254 47.5865 23.3177 47.4424 23.4451C47.2983 23.5726 47.2263 23.7319 47.2263 23.923C47.2263 24.0887 47.3376 24.2161 47.5603 24.3053C47.7961 24.3945 48.0843 24.4901 48.4248 24.5921C48.7654 24.6813 49.1322 24.7896 49.5251 24.917C49.9312 25.0445 50.3045 25.2165 50.6451 25.4332C50.9857 25.6371 51.2673 25.9111 51.49 26.2552C51.7258 26.5992 51.8437 27.0325 51.8437 27.555C51.8437 27.9119 51.7585 28.256 51.5882 28.5873C51.431 28.9186 51.1953 29.2181 50.8809 29.4857C50.5665 29.7406 50.1801 29.9445 49.7216 30.0975C49.2763 30.2504 48.772 30.3268 48.2087 30.3268C46.9774 30.3268 46.0474 30.0656 45.4186 29.5431C44.803 29.0206 44.4231 28.326 44.279 27.4595L46.8333 27.2683Z" fill="white"/>
<path d="M52.4393 21.3424H55.2883L57.2531 26.7904L59.218 21.3424H62.067L58.432 30.1357C57.9736 31.2317 57.4758 32.0282 56.9388 32.5252C56.4148 33.0349 55.7337 33.2898 54.8953 33.2898C54.7905 33.2898 54.6857 33.2834 54.5809 33.2707C54.4893 33.2707 54.3976 33.2643 54.3059 33.2516C54.2011 33.2388 54.1028 33.2197 54.0111 33.1942V30.9959C54.5613 30.9959 54.9739 30.8812 55.249 30.6518C55.5241 30.4352 55.7337 30.1357 55.8777 29.7534L52.4393 21.3424Z" fill="white"/>
<path d="M65.2154 27.2683C65.2678 27.5614 65.3922 27.7972 65.5887 27.9756C65.7852 28.1413 66.0537 28.2241 66.3943 28.2241C66.7349 28.2241 66.9968 28.1476 67.1802 27.9947C67.3767 27.829 67.475 27.6506 67.475 27.4595C67.475 27.3065 67.3571 27.1855 67.1213 27.0963C66.8986 26.9943 66.617 26.8987 66.2764 26.8095C65.9358 26.7076 65.5625 26.5929 65.1564 26.4654C64.7635 26.338 64.3967 26.1723 64.0561 25.9684C63.7155 25.7518 63.4274 25.4714 63.1916 25.1273C62.9689 24.7832 62.8576 24.3499 62.8576 23.8274C62.8576 23.4706 62.9362 23.1329 63.0933 22.8143C63.2505 22.483 63.4732 22.1962 63.7614 21.9541C64.0627 21.7119 64.4229 21.5208 64.8421 21.3806C65.2743 21.2277 65.759 21.1512 66.296 21.1512C67.475 21.1512 68.3722 21.4061 68.9879 21.9158C69.6035 22.4256 69.9834 23.0628 70.1275 23.8274L67.5732 24.0186C67.5208 23.8274 67.4029 23.6554 67.2195 23.5025C67.0361 23.3368 66.7938 23.254 66.4925 23.254C66.1912 23.254 65.9686 23.3177 65.8245 23.4451C65.6804 23.5726 65.6083 23.7319 65.6083 23.923C65.6083 24.0887 65.7197 24.2161 65.9424 24.3053C66.1782 24.3945 66.4663 24.4901 66.8069 24.5921C67.1475 24.6813 67.5142 24.7896 67.9072 24.917C68.3133 25.0445 68.6866 25.2165 69.0272 25.4332C69.3678 25.6371 69.6494 25.9111 69.8721 26.2552C70.1078 26.5992 70.2257 27.0325 70.2257 27.555C70.2257 27.9119 70.1406 28.256 69.9703 28.5873C69.8131 28.9186 69.5773 29.2181 69.263 29.4857C68.9486 29.7406 68.5622 29.9445 68.1037 30.0975C67.6583 30.2504 67.154 30.3268 66.5908 30.3268C65.3595 30.3268 64.4294 30.0656 63.8007 29.5431C63.185 29.0206 62.8052 28.326 62.6611 27.4595L65.2154 27.2683Z" fill="white"/>
<path d="M72.5897 23.7319H71.2143V21.5335H71.902C72.6224 21.5335 72.9827 21.1831 72.9827 20.4822V19.2396H75.2422V21.3424H77.1088V23.7319H75.2422V26.5992C75.2422 26.9816 75.3536 27.2874 75.5763 27.5168C75.7989 27.7335 76.0806 27.8418 76.4211 27.8418C76.5259 27.8418 76.6176 27.8418 76.6962 27.8418C76.7748 27.829 76.8469 27.8163 76.9124 27.8035C76.9779 27.7908 77.0433 27.7717 77.1088 27.7462V30.0401C77.0041 30.0783 76.8862 30.1102 76.7552 30.1357C76.4932 30.1994 76.1854 30.2313 75.8317 30.2313C74.7969 30.2313 73.9978 29.9573 73.4346 29.4093C72.8713 28.8485 72.5897 28.0393 72.5897 26.9816V23.7319Z" fill="white"/>
<path d="M87.1388 27.555C87.0209 27.9119 86.844 28.256 86.6083 28.5873C86.3725 28.9186 86.0778 29.2181 85.7241 29.4857C85.3704 29.7406 84.9578 29.9445 84.4862 30.0975C84.0278 30.2504 83.5038 30.3268 82.9144 30.3268C82.2987 30.3268 81.7158 30.2122 81.1656 29.9828C80.6286 29.7406 80.1505 29.4157 79.7313 29.0078C79.3252 28.5873 78.9978 28.103 78.7489 27.555C78.5131 26.9943 78.3952 26.389 78.3952 25.739C78.3952 25.0891 78.5131 24.4901 78.7489 23.9421C78.9978 23.3814 79.3318 22.8971 79.7509 22.4893C80.1701 22.0688 80.6548 21.7438 81.2049 21.5144C81.7682 21.2723 82.3707 21.1512 83.0126 21.1512C83.6282 21.1512 84.2046 21.2595 84.7417 21.4762C85.2787 21.6928 85.7437 22.0051 86.1367 22.4129C86.5428 22.8079 86.8572 23.2922 87.0798 23.8657C87.3156 24.4264 87.4335 25.0509 87.4335 25.739C87.4335 25.841 87.427 25.9429 87.4139 26.0449C87.4008 26.1341 87.3877 26.2233 87.3746 26.3125C87.3615 26.4145 87.3484 26.51 87.3353 26.5992H81.146C81.2508 26.9306 81.4604 27.2364 81.7747 27.5168C82.1022 27.7972 82.5148 27.9374 83.0126 27.9374C83.2615 27.9374 83.4711 27.9119 83.6413 27.8609C83.8247 27.7972 83.9688 27.7271 84.0736 27.6506C84.2046 27.5742 84.3094 27.4786 84.388 27.3639L87.1388 27.555ZM83.0126 23.5407C82.5148 23.5407 82.1022 23.6873 81.7747 23.9804C81.4604 24.2607 81.2508 24.5921 81.146 24.9744H84.8792C84.7744 24.5921 84.5583 24.2607 84.2308 23.9804C83.9164 23.6873 83.5104 23.5407 83.0126 23.5407Z" fill="white"/>
<path d="M93.5176 21.2468C93.9761 21.2468 94.3691 21.3105 94.6965 21.4379C95.024 21.5526 95.2925 21.6801 95.5021 21.8203C95.7379 21.9859 95.9278 22.1771 96.0719 22.3937C96.2815 22.1771 96.5238 21.9859 96.7989 21.8203C97.0347 21.6801 97.3163 21.5526 97.6438 21.4379C97.9713 21.3105 98.3315 21.2468 98.7245 21.2468C99.7069 21.2468 100.493 21.5526 101.082 22.1644C101.672 22.7761 101.966 23.6809 101.966 24.8788V30.1357H99.3139V25.1656C99.3139 24.6813 99.1829 24.3053 98.921 24.0377C98.6721 23.7701 98.3773 23.6363 98.0368 23.6363C97.6962 23.6363 97.3949 23.7701 97.1329 24.0377C96.8841 24.3053 96.7596 24.6813 96.7596 25.1656V30.1357H94.1071V25.1656C94.1071 24.6813 93.9761 24.3053 93.7141 24.0377C93.4652 23.7701 93.1705 23.6363 92.8299 23.6363C92.4894 23.6363 92.1881 23.7701 91.9261 24.0377C91.6772 24.3053 91.5528 24.6813 91.5528 25.1656V30.1357H88.9002V21.3424H90.8651L91.258 22.2026C91.4283 22.0242 91.6314 21.8649 91.8672 21.7247C92.0636 21.61 92.2994 21.5017 92.5745 21.3997C92.8627 21.2978 93.177 21.2468 93.5176 21.2468Z" fill="white"/>
<path d="M105.99 27.2683C106.042 27.5614 106.167 27.7972 106.363 27.9756C106.56 28.1413 106.828 28.2241 107.169 28.2241C107.509 28.2241 107.771 28.1476 107.955 27.9947C108.151 27.829 108.249 27.6506 108.249 27.4595C108.249 27.3065 108.131 27.1855 107.896 27.0963C107.673 26.9943 107.391 26.8987 107.051 26.8095C106.71 26.7076 106.337 26.5929 105.931 26.4654C105.538 26.338 105.171 26.1723 104.831 25.9684C104.49 25.7518 104.202 25.4714 103.966 25.1273C103.743 24.7832 103.632 24.3499 103.632 23.8274C103.632 23.4706 103.711 23.1329 103.868 22.8143C104.025 22.483 104.248 22.1962 104.536 21.9541C104.837 21.7119 105.197 21.5208 105.616 21.3806C106.049 21.2277 106.533 21.1512 107.07 21.1512C108.249 21.1512 109.147 21.4061 109.762 21.9158C110.378 22.4256 110.758 23.0628 110.902 23.8274L108.348 24.0186C108.295 23.8274 108.177 23.6554 107.994 23.5025C107.811 23.3368 107.568 23.254 107.267 23.254C106.966 23.254 106.743 23.3177 106.599 23.4451C106.455 23.5726 106.383 23.7319 106.383 23.923C106.383 24.0887 106.494 24.2161 106.717 24.3053C106.953 24.3945 107.241 24.4901 107.581 24.5921C107.922 24.6813 108.289 24.7896 108.682 24.917C109.088 25.0445 109.461 25.2165 109.802 25.4332C110.142 25.6371 110.424 25.9111 110.646 26.2552C110.882 26.5992 111 27.0325 111 27.555C111 27.9119 110.915 28.256 110.745 28.5873C110.588 28.9186 110.352 29.2181 110.037 29.4857C109.723 29.7406 109.337 29.9445 108.878 30.0975C108.433 30.2504 107.928 30.3268 107.365 30.3268C106.134 30.3268 105.204 30.0656 104.575 29.5431C103.959 29.0206 103.58 28.326 103.435 27.4595L105.99 27.2683Z" fill="white"/>
<path fill-rule="evenodd" clip-rule="evenodd" d="M21.9816 8.54369L26.7865 13.2184C28.4109 14.7987 28.4109 17.361 26.7865 18.9414L21.7697 23.8222L19.6344 21.7448L23.3309 18.1485C24.3171 17.189 24.3171 15.6333 23.3309 14.6738C22.3446 13.7143 20.7456 13.7143 19.7594 14.6738L16.0629 18.2701L14.0236 16.2861L21.9816 8.54369ZM18.2138 5.26007C16.6875 4.60232 14.8377 4.88204 13.5866 6.09922L6.26915 13.2184C4.64475 14.7987 4.64476 17.361 6.26915 18.9414L13.5866 26.0605C14.7558 27.198 16.4479 27.5168 17.9102 27.0167L8.66634 18.0234L8.66632 18.0234C7.68008 17.0639 7.68008 15.5082 8.66632 14.5487L18.2138 5.26007ZM23.2856 29.2968L23.0406 29.5352C19.4437 33.0346 13.612 33.0346 10.0151 29.5352L2.69765 22.4161C-0.899222 18.9167 -0.899216 13.243 2.69766 9.74366L10.0151 2.62454C13.612 -0.874849 19.4437 -0.874843 23.0406 2.62454L30.358 9.74367C33.9549 13.2431 33.9549 18.9167 30.358 22.4161L23.8253 28.7717C23.7506 28.8703 23.6674 28.9647 23.5757 29.054C23.484 29.1432 23.3869 29.2242 23.2856 29.2968Z" fill="url(#paint0_linear)"/>
<defs>
<linearGradient id="paint0_linear" x1="-8.00452" y1="24.6606" x2="43.3467" y2="6.48605" gradientUnits="userSpaceOnUse">
<stop stop-color="#7E3DB0"/>
<stop offset="0.49967" stop-color="#0094D8"/>
<stop offset="0.756446" stop-color="#00A5AF"/>
<stop offset="1" stop-color="#00A370"/>
</linearGradient>
</defs>
</svg>
